%TF.GenerationSoftware,KiCad,Pcbnew,9.0.3-9.0.3-0~ubuntu24.04.1*%
%TF.CreationDate,2025-12-18T18:23:40+05:30*%
%TF.ProjectId,Class_D_Amp_Discrete,436c6173-735f-4445-9f41-6d705f446973,rev?*%
%TF.SameCoordinates,Original*%
%TF.FileFunction,Legend,Top*%
%TF.FilePolarity,Positive*%
%FSLAX46Y46*%
G04 Gerber Fmt 4.6, Leading zero omitted, Abs format (unit mm)*
G04 Created by KiCad (PCBNEW 9.0.3-9.0.3-0~ubuntu24.04.1) date 2025-12-18 18:23:40*
%MOMM*%
%LPD*%
G01*
G04 APERTURE LIST*
%ADD10C,0.150000*%
%ADD11C,0.120000*%
G04 APERTURE END LIST*
D10*
X135333333Y-97584819D02*
X135000000Y-97108628D01*
X134761905Y-97584819D02*
X134761905Y-96584819D01*
X134761905Y-96584819D02*
X135142857Y-96584819D01*
X135142857Y-96584819D02*
X135238095Y-96632438D01*
X135238095Y-96632438D02*
X135285714Y-96680057D01*
X135285714Y-96680057D02*
X135333333Y-96775295D01*
X135333333Y-96775295D02*
X135333333Y-96918152D01*
X135333333Y-96918152D02*
X135285714Y-97013390D01*
X135285714Y-97013390D02*
X135238095Y-97061009D01*
X135238095Y-97061009D02*
X135142857Y-97108628D01*
X135142857Y-97108628D02*
X134761905Y-97108628D01*
X135714286Y-96680057D02*
X135761905Y-96632438D01*
X135761905Y-96632438D02*
X135857143Y-96584819D01*
X135857143Y-96584819D02*
X136095238Y-96584819D01*
X136095238Y-96584819D02*
X136190476Y-96632438D01*
X136190476Y-96632438D02*
X136238095Y-96680057D01*
X136238095Y-96680057D02*
X136285714Y-96775295D01*
X136285714Y-96775295D02*
X136285714Y-96870533D01*
X136285714Y-96870533D02*
X136238095Y-97013390D01*
X136238095Y-97013390D02*
X135666667Y-97584819D01*
X135666667Y-97584819D02*
X136285714Y-97584819D01*
X136833333Y-85084819D02*
X136500000Y-84608628D01*
X136261905Y-85084819D02*
X136261905Y-84084819D01*
X136261905Y-84084819D02*
X136642857Y-84084819D01*
X136642857Y-84084819D02*
X136738095Y-84132438D01*
X136738095Y-84132438D02*
X136785714Y-84180057D01*
X136785714Y-84180057D02*
X136833333Y-84275295D01*
X136833333Y-84275295D02*
X136833333Y-84418152D01*
X136833333Y-84418152D02*
X136785714Y-84513390D01*
X136785714Y-84513390D02*
X136738095Y-84561009D01*
X136738095Y-84561009D02*
X136642857Y-84608628D01*
X136642857Y-84608628D02*
X136261905Y-84608628D01*
X137785714Y-85084819D02*
X137214286Y-85084819D01*
X137500000Y-85084819D02*
X137500000Y-84084819D01*
X137500000Y-84084819D02*
X137404762Y-84227676D01*
X137404762Y-84227676D02*
X137309524Y-84322914D01*
X137309524Y-84322914D02*
X137214286Y-84370533D01*
X154743095Y-94814819D02*
X154743095Y-95624342D01*
X154743095Y-95624342D02*
X154790714Y-95719580D01*
X154790714Y-95719580D02*
X154838333Y-95767200D01*
X154838333Y-95767200D02*
X154933571Y-95814819D01*
X154933571Y-95814819D02*
X155124047Y-95814819D01*
X155124047Y-95814819D02*
X155219285Y-95767200D01*
X155219285Y-95767200D02*
X155266904Y-95719580D01*
X155266904Y-95719580D02*
X155314523Y-95624342D01*
X155314523Y-95624342D02*
X155314523Y-94814819D01*
X156314523Y-95814819D02*
X155743095Y-95814819D01*
X156028809Y-95814819D02*
X156028809Y-94814819D01*
X156028809Y-94814819D02*
X155933571Y-94957676D01*
X155933571Y-94957676D02*
X155838333Y-95052914D01*
X155838333Y-95052914D02*
X155743095Y-95100533D01*
X175743095Y-95314819D02*
X175743095Y-96124342D01*
X175743095Y-96124342D02*
X175790714Y-96219580D01*
X175790714Y-96219580D02*
X175838333Y-96267200D01*
X175838333Y-96267200D02*
X175933571Y-96314819D01*
X175933571Y-96314819D02*
X176124047Y-96314819D01*
X176124047Y-96314819D02*
X176219285Y-96267200D01*
X176219285Y-96267200D02*
X176266904Y-96219580D01*
X176266904Y-96219580D02*
X176314523Y-96124342D01*
X176314523Y-96124342D02*
X176314523Y-95314819D01*
X176743095Y-95410057D02*
X176790714Y-95362438D01*
X176790714Y-95362438D02*
X176885952Y-95314819D01*
X176885952Y-95314819D02*
X177124047Y-95314819D01*
X177124047Y-95314819D02*
X177219285Y-95362438D01*
X177219285Y-95362438D02*
X177266904Y-95410057D01*
X177266904Y-95410057D02*
X177314523Y-95505295D01*
X177314523Y-95505295D02*
X177314523Y-95600533D01*
X177314523Y-95600533D02*
X177266904Y-95743390D01*
X177266904Y-95743390D02*
X176695476Y-96314819D01*
X176695476Y-96314819D02*
X177314523Y-96314819D01*
X203333333Y-92809580D02*
X203285714Y-92857200D01*
X203285714Y-92857200D02*
X203142857Y-92904819D01*
X203142857Y-92904819D02*
X203047619Y-92904819D01*
X203047619Y-92904819D02*
X202904762Y-92857200D01*
X202904762Y-92857200D02*
X202809524Y-92761961D01*
X202809524Y-92761961D02*
X202761905Y-92666723D01*
X202761905Y-92666723D02*
X202714286Y-92476247D01*
X202714286Y-92476247D02*
X202714286Y-92333390D01*
X202714286Y-92333390D02*
X202761905Y-92142914D01*
X202761905Y-92142914D02*
X202809524Y-92047676D01*
X202809524Y-92047676D02*
X202904762Y-91952438D01*
X202904762Y-91952438D02*
X203047619Y-91904819D01*
X203047619Y-91904819D02*
X203142857Y-91904819D01*
X203142857Y-91904819D02*
X203285714Y-91952438D01*
X203285714Y-91952438D02*
X203333333Y-92000057D01*
X203714286Y-92000057D02*
X203761905Y-91952438D01*
X203761905Y-91952438D02*
X203857143Y-91904819D01*
X203857143Y-91904819D02*
X204095238Y-91904819D01*
X204095238Y-91904819D02*
X204190476Y-91952438D01*
X204190476Y-91952438D02*
X204238095Y-92000057D01*
X204238095Y-92000057D02*
X204285714Y-92095295D01*
X204285714Y-92095295D02*
X204285714Y-92190533D01*
X204285714Y-92190533D02*
X204238095Y-92333390D01*
X204238095Y-92333390D02*
X203666667Y-92904819D01*
X203666667Y-92904819D02*
X204285714Y-92904819D01*
X173166666Y-75074819D02*
X173166666Y-75789104D01*
X173166666Y-75789104D02*
X173119047Y-75931961D01*
X173119047Y-75931961D02*
X173023809Y-76027200D01*
X173023809Y-76027200D02*
X172880952Y-76074819D01*
X172880952Y-76074819D02*
X172785714Y-76074819D01*
X173547619Y-75074819D02*
X174166666Y-75074819D01*
X174166666Y-75074819D02*
X173833333Y-75455771D01*
X173833333Y-75455771D02*
X173976190Y-75455771D01*
X173976190Y-75455771D02*
X174071428Y-75503390D01*
X174071428Y-75503390D02*
X174119047Y-75551009D01*
X174119047Y-75551009D02*
X174166666Y-75646247D01*
X174166666Y-75646247D02*
X174166666Y-75884342D01*
X174166666Y-75884342D02*
X174119047Y-75979580D01*
X174119047Y-75979580D02*
X174071428Y-76027200D01*
X174071428Y-76027200D02*
X173976190Y-76074819D01*
X173976190Y-76074819D02*
X173690476Y-76074819D01*
X173690476Y-76074819D02*
X173595238Y-76027200D01*
X173595238Y-76027200D02*
X173547619Y-75979580D01*
X153166666Y-75074819D02*
X153166666Y-75789104D01*
X153166666Y-75789104D02*
X153119047Y-75931961D01*
X153119047Y-75931961D02*
X153023809Y-76027200D01*
X153023809Y-76027200D02*
X152880952Y-76074819D01*
X152880952Y-76074819D02*
X152785714Y-76074819D01*
X153595238Y-75170057D02*
X153642857Y-75122438D01*
X153642857Y-75122438D02*
X153738095Y-75074819D01*
X153738095Y-75074819D02*
X153976190Y-75074819D01*
X153976190Y-75074819D02*
X154071428Y-75122438D01*
X154071428Y-75122438D02*
X154119047Y-75170057D01*
X154119047Y-75170057D02*
X154166666Y-75265295D01*
X154166666Y-75265295D02*
X154166666Y-75360533D01*
X154166666Y-75360533D02*
X154119047Y-75503390D01*
X154119047Y-75503390D02*
X153547619Y-76074819D01*
X153547619Y-76074819D02*
X154166666Y-76074819D01*
X164166666Y-64074819D02*
X164166666Y-64789104D01*
X164166666Y-64789104D02*
X164119047Y-64931961D01*
X164119047Y-64931961D02*
X164023809Y-65027200D01*
X164023809Y-65027200D02*
X163880952Y-65074819D01*
X163880952Y-65074819D02*
X163785714Y-65074819D01*
X165166666Y-65074819D02*
X164595238Y-65074819D01*
X164880952Y-65074819D02*
X164880952Y-64074819D01*
X164880952Y-64074819D02*
X164785714Y-64217676D01*
X164785714Y-64217676D02*
X164690476Y-64312914D01*
X164690476Y-64312914D02*
X164595238Y-64360533D01*
X169828333Y-87334819D02*
X169352143Y-87334819D01*
X169352143Y-87334819D02*
X169352143Y-86334819D01*
X170685476Y-87334819D02*
X170114048Y-87334819D01*
X170399762Y-87334819D02*
X170399762Y-86334819D01*
X170399762Y-86334819D02*
X170304524Y-86477676D01*
X170304524Y-86477676D02*
X170209286Y-86572914D01*
X170209286Y-86572914D02*
X170114048Y-86620533D01*
X184833333Y-87859580D02*
X184785714Y-87907200D01*
X184785714Y-87907200D02*
X184642857Y-87954819D01*
X184642857Y-87954819D02*
X184547619Y-87954819D01*
X184547619Y-87954819D02*
X184404762Y-87907200D01*
X184404762Y-87907200D02*
X184309524Y-87811961D01*
X184309524Y-87811961D02*
X184261905Y-87716723D01*
X184261905Y-87716723D02*
X184214286Y-87526247D01*
X184214286Y-87526247D02*
X184214286Y-87383390D01*
X184214286Y-87383390D02*
X184261905Y-87192914D01*
X184261905Y-87192914D02*
X184309524Y-87097676D01*
X184309524Y-87097676D02*
X184404762Y-87002438D01*
X184404762Y-87002438D02*
X184547619Y-86954819D01*
X184547619Y-86954819D02*
X184642857Y-86954819D01*
X184642857Y-86954819D02*
X184785714Y-87002438D01*
X184785714Y-87002438D02*
X184833333Y-87050057D01*
X185166667Y-86954819D02*
X185785714Y-86954819D01*
X185785714Y-86954819D02*
X185452381Y-87335771D01*
X185452381Y-87335771D02*
X185595238Y-87335771D01*
X185595238Y-87335771D02*
X185690476Y-87383390D01*
X185690476Y-87383390D02*
X185738095Y-87431009D01*
X185738095Y-87431009D02*
X185785714Y-87526247D01*
X185785714Y-87526247D02*
X185785714Y-87764342D01*
X185785714Y-87764342D02*
X185738095Y-87859580D01*
X185738095Y-87859580D02*
X185690476Y-87907200D01*
X185690476Y-87907200D02*
X185595238Y-87954819D01*
X185595238Y-87954819D02*
X185309524Y-87954819D01*
X185309524Y-87954819D02*
X185214286Y-87907200D01*
X185214286Y-87907200D02*
X185166667Y-87859580D01*
X203333333Y-88759580D02*
X203285714Y-88807200D01*
X203285714Y-88807200D02*
X203142857Y-88854819D01*
X203142857Y-88854819D02*
X203047619Y-88854819D01*
X203047619Y-88854819D02*
X202904762Y-88807200D01*
X202904762Y-88807200D02*
X202809524Y-88711961D01*
X202809524Y-88711961D02*
X202761905Y-88616723D01*
X202761905Y-88616723D02*
X202714286Y-88426247D01*
X202714286Y-88426247D02*
X202714286Y-88283390D01*
X202714286Y-88283390D02*
X202761905Y-88092914D01*
X202761905Y-88092914D02*
X202809524Y-87997676D01*
X202809524Y-87997676D02*
X202904762Y-87902438D01*
X202904762Y-87902438D02*
X203047619Y-87854819D01*
X203047619Y-87854819D02*
X203142857Y-87854819D01*
X203142857Y-87854819D02*
X203285714Y-87902438D01*
X203285714Y-87902438D02*
X203333333Y-87950057D01*
X204285714Y-88854819D02*
X203714286Y-88854819D01*
X204000000Y-88854819D02*
X204000000Y-87854819D01*
X204000000Y-87854819D02*
X203904762Y-87997676D01*
X203904762Y-87997676D02*
X203809524Y-88092914D01*
X203809524Y-88092914D02*
X203714286Y-88140533D01*
D11*
%TO.C,R2*%
X132230000Y-98130000D02*
X138770000Y-98130000D01*
X132230000Y-98460000D02*
X132230000Y-98130000D01*
X132230000Y-100540000D02*
X132230000Y-100870000D01*
X132230000Y-100870000D02*
X138770000Y-100870000D01*
X138770000Y-98130000D02*
X138770000Y-98460000D01*
X138770000Y-100870000D02*
X138770000Y-100540000D01*
%TO.C,R1*%
X133730000Y-85630000D02*
X140270000Y-85630000D01*
X133730000Y-85960000D02*
X133730000Y-85630000D01*
X133730000Y-88040000D02*
X133730000Y-88370000D01*
X133730000Y-88370000D02*
X140270000Y-88370000D01*
X140270000Y-85630000D02*
X140270000Y-85960000D01*
X140270000Y-88370000D02*
X140270000Y-88040000D01*
%TO.C,U1*%
X152855000Y-96360000D02*
X152855000Y-106640000D01*
X152855000Y-106640000D02*
X158155000Y-106640000D01*
X154505000Y-96360000D02*
X152855000Y-96360000D01*
X158155000Y-96360000D02*
X156505000Y-96360000D01*
X158155000Y-106640000D02*
X158155000Y-96360000D01*
X156505000Y-96360000D02*
G75*
G02*
X154505000Y-96360000I-1000000J0D01*
G01*
%TO.C,U2*%
X177505000Y-96860000D02*
G75*
G02*
X175505000Y-96860000I-1000000J0D01*
G01*
X179155000Y-107140000D02*
X179155000Y-96860000D01*
X179155000Y-96860000D02*
X177505000Y-96860000D01*
X175505000Y-96860000D02*
X173855000Y-96860000D01*
X173855000Y-107140000D02*
X179155000Y-107140000D01*
X173855000Y-96860000D02*
X173855000Y-107140000D01*
%TO.C,C2*%
X200880000Y-93580000D02*
X206120000Y-93580000D01*
X200880000Y-93917000D02*
X200880000Y-93580000D01*
X200880000Y-96320000D02*
X200880000Y-95983000D01*
X206120000Y-93580000D02*
X206120000Y-93917000D01*
X206120000Y-95983000D02*
X206120000Y-96320000D01*
X206120000Y-96320000D02*
X200880000Y-96320000D01*
%TO.C,J3*%
X174880000Y-79270000D02*
X174880000Y-81920000D01*
X172120000Y-81920000D02*
X174880000Y-81920000D01*
X172120000Y-79270000D02*
X174880000Y-79270000D01*
X172120000Y-79270000D02*
X172120000Y-81920000D01*
X172120000Y-78000000D02*
X172120000Y-76620000D01*
X172120000Y-76620000D02*
X173500000Y-76620000D01*
%TO.C,J2*%
X154880000Y-79270000D02*
X154880000Y-81920000D01*
X152120000Y-81920000D02*
X154880000Y-81920000D01*
X152120000Y-79270000D02*
X154880000Y-79270000D01*
X152120000Y-79270000D02*
X152120000Y-81920000D01*
X152120000Y-78000000D02*
X152120000Y-76620000D01*
X152120000Y-76620000D02*
X153500000Y-76620000D01*
%TO.C,J1*%
X165880000Y-68270000D02*
X165880000Y-70920000D01*
X163120000Y-70920000D02*
X165880000Y-70920000D01*
X163120000Y-68270000D02*
X165880000Y-68270000D01*
X163120000Y-68270000D02*
X163120000Y-70920000D01*
X163120000Y-67000000D02*
X163120000Y-65620000D01*
X163120000Y-65620000D02*
X164500000Y-65620000D01*
%TO.C,L1*%
X165125000Y-87880000D02*
X174865000Y-87880000D01*
X174865000Y-92120000D01*
X165125000Y-92120000D01*
X165125000Y-87880000D01*
X176375000Y-90000000D02*
X174865000Y-90000000D01*
X163615000Y-90000000D02*
X165125000Y-90000000D01*
%TO.C,C3*%
X187620000Y-91370000D02*
X182380000Y-91370000D01*
X187620000Y-91033000D02*
X187620000Y-91370000D01*
X187620000Y-88630000D02*
X187620000Y-88967000D01*
X182380000Y-91370000D02*
X182380000Y-91033000D01*
X182380000Y-88967000D02*
X182380000Y-88630000D01*
X182380000Y-88630000D02*
X187620000Y-88630000D01*
%TO.C,C1*%
X206120000Y-92270000D02*
X200880000Y-92270000D01*
X206120000Y-91933000D02*
X206120000Y-92270000D01*
X206120000Y-89530000D02*
X206120000Y-89867000D01*
X200880000Y-92270000D02*
X200880000Y-91933000D01*
X200880000Y-89867000D02*
X200880000Y-89530000D01*
X200880000Y-89530000D02*
X206120000Y-89530000D01*
%TD*%
M02*
