M48
; DRILL file {KiCad 9.0.3-9.0.3-0~ubuntu24.04.1} date 2025-12-18T18:24:19+0530
; FORMAT={-:-/ absolute / metric / decimal}
; #@! TF.CreationDate,2025-12-18T18:24:19+05:30
; #@! TF.GenerationSoftware,Kicad,Pcbnew,9.0.3-9.0.3-0~ubuntu24.04.1
; #@! TF.FileFunction,Plated,1,2,PTH
FMAT,2
METRIC
; #@! TA.AperFunction,Plated,PTH,ViaDrill
T1C0.300
; #@! TA.AperFunction,Plated,PTH,ComponentDrill
T2C0.800
; #@! TA.AperFunction,Plated,PTH,ComponentDrill
T3C1.000
%
G90
G05
T1
X137.0Y-93.5
X139.0Y-91.0
X147.857Y-104.143
X150.0Y-102.0
X156.333Y-99.788
X157.311Y-98.811
X157.513Y-101.013
X158.194Y-99.694
X171.413Y-80.087
X172.685Y-78.815
X178.5Y-102.0
X182.066Y-100.482
X186.5Y-96.5
X188.5Y-96.5
T2
X131.69Y-99.5
X133.19Y-87.0
X139.31Y-99.5
X140.81Y-87.0
X151.695Y-97.69
X151.695Y-100.23
X151.695Y-102.77
X151.695Y-105.31
X159.315Y-97.69
X159.315Y-100.23
X159.315Y-102.77
X159.315Y-105.31
X172.695Y-98.19
X172.695Y-100.73
X172.695Y-103.27
X172.695Y-105.81
X180.315Y-98.19
X180.315Y-100.73
X180.315Y-103.27
X180.315Y-105.81
X182.5Y-90.0
X187.5Y-90.0
X201.0Y-90.9
X201.0Y-94.95
X206.0Y-90.9
X206.0Y-94.95
T3
X153.5Y-78.0
X153.5Y-80.54
X162.375Y-90.0
X164.5Y-67.0
X164.5Y-69.54
X173.5Y-78.0
X173.5Y-80.54
X177.615Y-90.0
M30
