%TF.GenerationSoftware,KiCad,Pcbnew,9.0.3-9.0.3-0~ubuntu24.04.1*%
%TF.CreationDate,2025-12-18T18:23:40+05:30*%
%TF.ProjectId,Class_D_Amp_Discrete,436c6173-735f-4445-9f41-6d705f446973,rev?*%
%TF.SameCoordinates,Original*%
%TF.FileFunction,Copper,L2,Bot*%
%TF.FilePolarity,Positive*%
%FSLAX46Y46*%
G04 Gerber Fmt 4.6, Leading zero omitted, Abs format (unit mm)*
G04 Created by KiCad (PCBNEW 9.0.3-9.0.3-0~ubuntu24.04.1) date 2025-12-18 18:23:40*
%MOMM*%
%LPD*%
G01*
G04 APERTURE LIST*
G04 Aperture macros list*
%AMRoundRect*
0 Rectangle with rounded corners*
0 $1 Rounding radius*
0 $2 $3 $4 $5 $6 $7 $8 $9 X,Y pos of 4 corners*
0 Add a 4 corners polygon primitive as box body*
4,1,4,$2,$3,$4,$5,$6,$7,$8,$9,$2,$3,0*
0 Add four circle primitives for the rounded corners*
1,1,$1+$1,$2,$3*
1,1,$1+$1,$4,$5*
1,1,$1+$1,$6,$7*
1,1,$1+$1,$8,$9*
0 Add four rect primitives between the rounded corners*
20,1,$1+$1,$2,$3,$4,$5,0*
20,1,$1+$1,$4,$5,$6,$7,0*
20,1,$1+$1,$6,$7,$8,$9,0*
20,1,$1+$1,$8,$9,$2,$3,0*%
G04 Aperture macros list end*
%TA.AperFunction,ComponentPad*%
%ADD10C,1.600000*%
%TD*%
%TA.AperFunction,ComponentPad*%
%ADD11RoundRect,0.250000X-0.550000X-0.550000X0.550000X-0.550000X0.550000X0.550000X-0.550000X0.550000X0*%
%TD*%
%TA.AperFunction,ComponentPad*%
%ADD12C,1.700000*%
%TD*%
%TA.AperFunction,ComponentPad*%
%ADD13R,1.700000X1.700000*%
%TD*%
%TA.AperFunction,ComponentPad*%
%ADD14C,2.000000*%
%TD*%
%TA.AperFunction,ViaPad*%
%ADD15C,0.600000*%
%TD*%
%TA.AperFunction,Conductor*%
%ADD16C,0.250000*%
%TD*%
G04 APERTURE END LIST*
D10*
%TO.P,R2,1*%
%TO.N,Net-(U1-DIS)*%
X131690000Y-99500000D03*
%TO.P,R2,2*%
%TO.N,Net-(U1-THR)*%
X139310000Y-99500000D03*
%TD*%
%TO.P,R1,1*%
%TO.N,VDC*%
X133190000Y-87000000D03*
%TO.P,R1,2*%
%TO.N,Net-(U1-DIS)*%
X140810000Y-87000000D03*
%TD*%
D11*
%TO.P,U1,1,GND*%
%TO.N,GND*%
X151695000Y-97690000D03*
D10*
%TO.P,U1,2,TR*%
%TO.N,Net-(U1-THR)*%
X151695000Y-100230000D03*
%TO.P,U1,3,Q*%
%TO.N,unconnected-(U1-Q-Pad3)*%
X151695000Y-102770000D03*
%TO.P,U1,4,R*%
%TO.N,VDC*%
X151695000Y-105310000D03*
%TO.P,U1,5,CV*%
%TO.N,Net-(U1-CV)*%
X159315000Y-105310000D03*
%TO.P,U1,6,THR*%
%TO.N,Net-(U1-THR)*%
X159315000Y-102770000D03*
%TO.P,U1,7,DIS*%
%TO.N,Net-(U1-DIS)*%
X159315000Y-100230000D03*
%TO.P,U1,8,VCC*%
%TO.N,VDC*%
X159315000Y-97690000D03*
%TD*%
%TO.P,U2,8,NC*%
%TO.N,unconnected-(U2-NC-Pad8)*%
X180315000Y-98190000D03*
%TO.P,U2,7,V+*%
%TO.N,VDC*%
X180315000Y-100730000D03*
%TO.P,U2,6*%
%TO.N,Net-(L1-Pad1)*%
X180315000Y-103270000D03*
%TO.P,U2,5,NULL*%
%TO.N,unconnected-(U2-NULL-Pad5)*%
X180315000Y-105810000D03*
%TO.P,U2,4,V-*%
%TO.N,GND*%
X172695000Y-105810000D03*
%TO.P,U2,3,+*%
%TO.N,Net-(J2-Pin_1)*%
X172695000Y-103270000D03*
%TO.P,U2,2,-*%
%TO.N,Net-(U1-THR)*%
X172695000Y-100730000D03*
D11*
%TO.P,U2,1,NULL*%
%TO.N,unconnected-(U2-NULL-Pad1)*%
X172695000Y-98190000D03*
%TD*%
D10*
%TO.P,C2,1*%
%TO.N,Net-(U1-CV)*%
X201000000Y-94950000D03*
%TO.P,C2,2*%
%TO.N,GND*%
X206000000Y-94950000D03*
%TD*%
D12*
%TO.P,J3,2,Pin_2*%
%TO.N,GND*%
X173500000Y-80540000D03*
D13*
%TO.P,J3,1,Pin_1*%
%TO.N,Net-(J3-Pin_1)*%
X173500000Y-78000000D03*
%TD*%
D12*
%TO.P,J2,2,Pin_2*%
%TO.N,GND*%
X153500000Y-80540000D03*
D13*
%TO.P,J2,1,Pin_1*%
%TO.N,Net-(J2-Pin_1)*%
X153500000Y-78000000D03*
%TD*%
D12*
%TO.P,J1,2,Pin_2*%
%TO.N,GND*%
X164500000Y-69540000D03*
D13*
%TO.P,J1,1,Pin_1*%
%TO.N,VDC*%
X164500000Y-67000000D03*
%TD*%
D14*
%TO.P,L1,2,2*%
%TO.N,Net-(J3-Pin_1)*%
X177615000Y-90000000D03*
%TO.P,L1,1,1*%
%TO.N,Net-(L1-Pad1)*%
X162375000Y-90000000D03*
%TD*%
D10*
%TO.P,C3,2*%
%TO.N,GND*%
X187500000Y-90000000D03*
%TO.P,C3,1*%
%TO.N,Net-(J3-Pin_1)*%
X182500000Y-90000000D03*
%TD*%
%TO.P,C1,2*%
%TO.N,GND*%
X206000000Y-90900000D03*
%TO.P,C1,1*%
%TO.N,Net-(U1-THR)*%
X201000000Y-90900000D03*
%TD*%
D15*
%TO.N,Net-(J3-Pin_1)*%
X172685397Y-78814603D03*
X171412603Y-80087397D03*
%TO.N,Net-(U1-DIS)*%
X158194442Y-99694442D03*
X157310558Y-98810558D03*
%TO.N,Net-(U1-THR)*%
X182066000Y-100482301D03*
X188500000Y-96500000D03*
X178500000Y-102000000D03*
X186500000Y-96500000D03*
X156333058Y-99788058D03*
X157513347Y-101013347D03*
X150000000Y-102000000D03*
X147856855Y-104143144D03*
%TO.N,Net-(U1-DIS)*%
X137000000Y-93500000D03*
X139000000Y-91000000D03*
%TD*%
D16*
%TO.N,Net-(J3-Pin_1)*%
X172685397Y-78814603D02*
X171412603Y-80087397D01*
%TO.N,Net-(U1-DIS)*%
X158194442Y-99694442D02*
X157310558Y-98810558D01*
%TO.N,Net-(U1-THR)*%
X188500000Y-96500000D02*
X186500000Y-96500000D01*
X180637405Y-102000000D02*
X178500000Y-102000000D01*
X182066000Y-100571405D02*
X180637405Y-102000000D01*
X182066000Y-100482301D02*
X182066000Y-100571405D01*
X157513347Y-101013347D02*
X156333058Y-99833058D01*
X156333058Y-99833058D02*
X156333058Y-99788058D01*
X150000000Y-102000000D02*
X148000000Y-104000000D01*
X148000000Y-104000000D02*
X147925001Y-104000000D01*
X147925001Y-104000000D02*
X147856855Y-104068146D01*
X147856855Y-104068146D02*
X147856855Y-104143144D01*
%TO.N,Net-(U1-DIS)*%
X137000000Y-93500000D02*
X137000000Y-93000000D01*
X137000000Y-93000000D02*
X139000000Y-91000000D01*
%TD*%
M02*
